<svg xmlns="http://www.w3.org/2000/svg" xmlns:xlink="http://www.w3.org/1999/xlink" version="1.1" viewBox="0 0 2160 2610.9999343665736" style="background: #ffffff"><defs joint-selector="defs"></defs><g  joint-selector="layers" transform="matrix(1,0,0,1,0,0)"><g ></g><g ><g   id="j_41"  transform="translate(20,2565.9999343665736)"><g id="v-415"><text  id="v-416" font-size="22px" xml:space="preserve" y="0.8em" font-weight="normal" text-anchor="start" fill="#aaaaaa" pointer-events="none" font-family="Open Sans"><tspan  dy="0">Monday, March 13, 2023 at 10:16 AM Central European Standard Time</tspan></text></g></g><g   id="j_40"  transform="translate(20,2521.9999343665736)"><g id="v-413"><text  id="v-414" font-size="36px" xml:space="preserve" y="0.8em" font-weight="normal" text-anchor="start" fill="#000000" pointer-events="none" font-family="Open Sans"><tspan  dy="0">[Component] AngularAndSpring WithMaps System - AngularAndSpring WithMaps</tspan></text></g></g><g   id="j_33"  transform="translate(834,199)" style=""><g id="v-324"><rect  id="v-325" width="490" height="2211" rx="0" ry="0" fill="#ffffff" stroke="#c7c7c7" stroke-width="1" stroke-dasharray="20,20" pointer-events="none"></rect><text  id="v-326" font-size="24px" xml:space="preserve" y="2172" font-weight="normal" fill="#c7c7c7" text-anchor="start" pointer-events="visible" font-family="Open Sans" transform="matrix(1,0,0,1,15,0)"><tspan  dy="0">AngularAndSpring WithMaps</tspan></text><text  id="v-327" font-size="17px" xml:space="preserve" y="2196" font-weight="normal" fill="#c7c7c7" text-anchor="start" pointer-events="visible" font-family="Open Sans" transform="matrix(1,0,0,1,15,0)"><tspan  dy="0">[Container]</tspan></text><image  id="v-328" pointer-events="visible"></image></g></g><g   id="j_37" ><path  stroke="#707070" d="M 1079 1719 L 1079 2019" id="v-377" stroke-width="2" stroke-dasharray="30 30" fill="none" style="opacity: 1;"></path><path  fill="black" stroke="black" d="M 0 0 0 0" transform="matrix(6.123234262925839e-17,1,-1,6.123234262925839e-17,1079,1719)"></path><path  fill="#707070" stroke="#707070" d="M 20 0 L 0 10 L 20 20 z" id="v-379" transform="matrix(-1.8369701465288538e-16,-1,1,-1.8369701465288538e-16,1069,2019)" style="opacity: 1;"></path><path  d="M 1079 1719 L 1079 2019" id="v-378" fill="none" style="cursor: auto; pointer-events: visiblepainted;"></path><g ><g id="v-371"  label-idx="0" cursor="move" transform="matrix(1,0,0,1,1079,1869)" style="cursor: default; opacity: 1;"><rect joint-selector="rect" id="v-374" fill="#ffffff" rx="3" ry="3" stroke="#ffffff" stroke-width="20px" pointer-events="none" width="0" height="0" transform="matrix(1,0,0,1,0,0)"></rect><text joint-selector="text" id="v-373" font-size="24px" xml:space="preserve" display="none" y="0.8em" fill="#707070" text-anchor="middle" pointer-events="none" font-family="Open Sans" font-weight="normal"><tspan style="fill-opacity: 0; stroke-opacity: 0;"  dy="0">-</tspan></text></g><g id="v-372"  label-idx="1" cursor="move" transform="matrix(1,0,0,1,1069,1879)" style="cursor: default; opacity: 1;"><rect joint-selector="rect" id="v-376" fill="#ffffff" rx="3" ry="3"  width="0" height="0" transform="matrix(1,0,0,1,0,0)" display="none"></rect><text joint-selector="text" id="v-375" fill="#000000" font-size="14" text-anchor="middle" pointer-events="none"></text></g></g><g  display="none" style="display: none;"></g><g  id="v-381" display="none"><g  id="v-369"><path  end="source" d="M 26 0 L 0 13 L 26 26 z"></path></g><g  id="v-370"><path  end="target" d="M 26 0 L 0 13 L 26 26 z"></path></g></g><g  id="v-380" display="none"><g  id="v-368" transform="translate(1079, 1759) "><g  event="remove"><circle r="11"></circle><path transform="scale(.8) translate(-16, -16)" d="M24.778,21.419 19.276,15.917 24.777,10.415 21.949,7.585 16.447,13.087 10.945,7.585 8.117,10.415 13.618,15.917 8.116,21.419 10.946,24.248 16.447,18.746 21.948,24.248z"></path><title>Remove link.</title></g><g  event="link:options"><circle r="11" transform="translate(25)"></circle><path fill="white" transform="scale(.55) translate(29, -16)" d="M31.229,17.736c0.064-0.571,0.104-1.148,0.104-1.736s-0.04-1.166-0.104-1.737l-4.377-1.557c-0.218-0.716-0.504-1.401-0.851-2.05l1.993-4.192c-0.725-0.91-1.549-1.734-2.458-2.459l-4.193,1.994c-0.647-0.347-1.334-0.632-2.049-0.849l-1.558-4.378C17.165,0.708,16.588,0.667,16,0.667s-1.166,0.041-1.737,0.105L12.707,5.15c-0.716,0.217-1.401,0.502-2.05,0.849L6.464,4.005C5.554,4.73,4.73,5.554,4.005,6.464l1.994,4.192c-0.347,0.648-0.632,1.334-0.849,2.05l-4.378,1.557C0.708,14.834,0.667,15.412,0.667,16s0.041,1.165,0.105,1.736l4.378,1.558c0.217,0.715,0.502,1.401,0.849,2.049l-1.994,4.193c0.725,0.909,1.549,1.733,2.459,2.458l4.192-1.993c0.648,0.347,1.334,0.633,2.05,0.851l1.557,4.377c0.571,0.064,1.148,0.104,1.737,0.104c0.588,0,1.165-0.04,1.736-0.104l1.558-4.377c0.715-0.218,1.399-0.504,2.049-0.851l4.193,1.993c0.909-0.725,1.733-1.549,2.458-2.458l-1.993-4.193c0.347-0.647,0.633-1.334,0.851-2.049L31.229,17.736zM16,20.871c-2.69,0-4.872-2.182-4.872-4.871c0-2.69,2.182-4.872,4.872-4.872c2.689,0,4.871,2.182,4.871,4.872C20.871,18.689,18.689,20.871,16,20.871z"></path><title>Link options.</title></g></g></g></g><g   id="j_38" ><path  stroke="#707070" d="M 1079 1119 L 1079 1419" id="v-391" stroke-width="2" stroke-dasharray="30 30" fill="none" style="opacity: 1;"></path><path  fill="black" stroke="black" d="M 0 0 0 0" transform="matrix(6.123234262925839e-17,1,-1,6.123234262925839e-17,1079,1119)"></path><path  fill="#707070" stroke="#707070" d="M 20 0 L 0 10 L 20 20 z" id="v-393" transform="matrix(-1.8369701465288538e-16,-1,1,-1.8369701465288538e-16,1069,1419)" style="opacity: 1;"></path><path  d="M 1079 1119 L 1079 1419" id="v-392" fill="none" style="cursor: auto; pointer-events: visiblepainted;"></path><g ><g id="v-385"  label-idx="0" cursor="move" transform="matrix(1,0,0,1,1079,1269)" style="cursor: default; opacity: 1;"><rect joint-selector="rect" id="v-388" fill="#ffffff" rx="3" ry="3" stroke="#ffffff" stroke-width="20px" pointer-events="none" width="0" height="0" transform="matrix(1,0,0,1,0,0)"></rect><text joint-selector="text" id="v-387" font-size="24px" xml:space="preserve" display="none" y="0.8em" fill="#707070" text-anchor="middle" pointer-events="none" font-family="Open Sans" font-weight="normal"><tspan style="fill-opacity: 0; stroke-opacity: 0;"  dy="0">-</tspan></text></g><g id="v-386"  label-idx="1" cursor="move" transform="matrix(1,0,0,1,1069,1279)" style="cursor: default; opacity: 1;"><rect joint-selector="rect" id="v-390" fill="#ffffff" rx="3" ry="3"  width="0" height="0" transform="matrix(1,0,0,1,0,0)" display="none"></rect><text joint-selector="text" id="v-389" fill="#000000" font-size="14" text-anchor="middle" pointer-events="none"></text></g></g><g  display="none" style="display: none;"></g><g  id="v-395" display="none"><g  id="v-383"><path  end="source" d="M 26 0 L 0 13 L 26 26 z"></path></g><g  id="v-384"><path  end="target" d="M 26 0 L 0 13 L 26 26 z"></path></g></g><g  id="v-394" display="none"><g  id="v-382" transform="translate(1079, 1159) "><g  event="remove"><circle r="11"></circle><path transform="scale(.8) translate(-16, -16)" d="M24.778,21.419 19.276,15.917 24.777,10.415 21.949,7.585 16.447,13.087 10.945,7.585 8.117,10.415 13.618,15.917 8.116,21.419 10.946,24.248 16.447,18.746 21.948,24.248z"></path><title>Remove link.</title></g><g  event="link:options"><circle r="11" transform="translate(25)"></circle><path fill="white" transform="scale(.55) translate(29, -16)" d="M31.229,17.736c0.064-0.571,0.104-1.148,0.104-1.736s-0.04-1.166-0.104-1.737l-4.377-1.557c-0.218-0.716-0.504-1.401-0.851-2.05l1.993-4.192c-0.725-0.91-1.549-1.734-2.458-2.459l-4.193,1.994c-0.647-0.347-1.334-0.632-2.049-0.849l-1.558-4.378C17.165,0.708,16.588,0.667,16,0.667s-1.166,0.041-1.737,0.105L12.707,5.15c-0.716,0.217-1.401,0.502-2.05,0.849L6.464,4.005C5.554,4.73,4.73,5.554,4.005,6.464l1.994,4.192c-0.347,0.648-0.632,1.334-0.849,2.05l-4.378,1.557C0.708,14.834,0.667,15.412,0.667,16s0.041,1.165,0.105,1.736l4.378,1.558c0.217,0.715,0.502,1.401,0.849,2.049l-1.994,4.193c0.725,0.909,1.549,1.733,2.459,2.458l4.192-1.993c0.648,0.347,1.334,0.633,2.05,0.851l1.557,4.377c0.571,0.064,1.148,0.104,1.737,0.104c0.588,0,1.165-0.04,1.736-0.104l1.558-4.377c0.715-0.218,1.399-0.504,2.049-0.851l4.193,1.993c0.909-0.725,1.733-1.549,2.458-2.458l-1.993-4.193c0.347-0.647,0.633-1.334,0.851-2.049L31.229,17.736zM16,20.871c-2.69,0-4.872-2.182-4.872-4.871c0-2.69,2.182-4.872,4.872-4.872c2.689,0,4.871,2.182,4.871,4.872C20.871,18.689,18.689,20.871,16,20.871z"></path><title>Link options.</title></g></g></g></g><g   id="j_39" ><path  stroke="#707070" d="M 1079 519 L 1079 819" id="v-408" stroke-width="2" stroke-dasharray="30 30" fill="none" style="opacity: 1;"></path><path  fill="black" stroke="black" d="M 0 0 0 0" transform="matrix(6.123234262925839e-17,1,-1,6.123234262925839e-17,1079,519)"></path><path  fill="#707070" stroke="#707070" d="M 20 0 L 0 10 L 20 20 z" id="v-410" transform="matrix(-1.8369701465288538e-16,-1,1,-1.8369701465288538e-16,1069,819)" style="opacity: 1;"></path><path  d="M 1079 519 L 1079 819" id="v-409" fill="none" style="cursor: auto; pointer-events: visiblepainted;"></path><g ><g id="v-402"  label-idx="0" cursor="move" transform="matrix(1,0,0,1,1079,669)" style="cursor: default; opacity: 1;"><rect joint-selector="rect" id="v-405" fill="#ffffff" rx="3" ry="3" stroke="#ffffff" stroke-width="20px" pointer-events="none" width="195.1999969482422" height="33" transform="matrix(1,0,0,1,-97.30000305175781,-16.5)"></rect><text joint-selector="text" id="v-404" font-size="24px" xml:space="preserve" y="0.8em" fill="#707070" text-anchor="middle" pointer-events="none" font-family="Open Sans" font-weight="normal" transform="matrix(1,0,0,1,0,-8.699999809265137)"><tspan  dy="0">Graphql requests</tspan></text></g><g id="v-403"  label-idx="1" cursor="move" transform="matrix(1,0,0,1,1069,693.4000244140625)" style="cursor: default; opacity: 1;"><rect joint-selector="rect" id="v-407" fill="#ffffff" rx="3" ry="3"  width="0" height="0" transform="matrix(1,0,0,1,0,0)" display="none"></rect><text joint-selector="text" id="v-406" fill="#000000" font-size="14" text-anchor="middle" pointer-events="none"></text></g></g><g  display="none" style="display: none;"></g><g  id="v-412" display="none"><g  id="v-400"><path  end="source" d="M 26 0 L 0 13 L 26 26 z"></path></g><g  id="v-401"><path  end="target" d="M 26 0 L 0 13 L 26 26 z"></path></g></g><g  id="v-411" display="none"><g  id="v-399" transform="translate(1079, 559) "><g  event="remove"><circle r="11"></circle><path transform="scale(.8) translate(-16, -16)" d="M24.778,21.419 19.276,15.917 24.777,10.415 21.949,7.585 16.447,13.087 10.945,7.585 8.117,10.415 13.618,15.917 8.116,21.419 10.946,24.248 16.447,18.746 21.948,24.248z"></path><title>Remove link.</title></g><g  event="link:options"><circle r="11" transform="translate(25)"></circle><path fill="white" transform="scale(.55) translate(29, -16)" d="M31.229,17.736c0.064-0.571,0.104-1.148,0.104-1.736s-0.04-1.166-0.104-1.737l-4.377-1.557c-0.218-0.716-0.504-1.401-0.851-2.05l1.993-4.192c-0.725-0.91-1.549-1.734-2.458-2.459l-4.193,1.994c-0.647-0.347-1.334-0.632-2.049-0.849l-1.558-4.378C17.165,0.708,16.588,0.667,16,0.667s-1.166,0.041-1.737,0.105L12.707,5.15c-0.716,0.217-1.401,0.502-2.05,0.849L6.464,4.005C5.554,4.73,4.73,5.554,4.005,6.464l1.994,4.192c-0.347,0.648-0.632,1.334-0.849,2.05l-4.378,1.557C0.708,14.834,0.667,15.412,0.667,16s0.041,1.165,0.105,1.736l4.378,1.558c0.217,0.715,0.502,1.401,0.849,2.049l-1.994,4.193c0.725,0.909,1.549,1.733,2.459,2.458l4.192-1.993c0.648,0.347,1.334,0.633,2.05,0.851l1.557,4.377c0.571,0.064,1.148,0.104,1.737,0.104c0.588,0,1.165-0.04,1.736-0.104l1.558-4.377c0.715-0.218,1.399-0.504,2.049-0.851l4.193,1.993c0.909-0.725,1.733-1.549,2.458-2.458l-1.993-4.193c0.347-0.647,0.633-1.334,0.851-2.049L31.229,17.736zM16,20.871c-2.69,0-4.872-2.182-4.872-4.871c0-2.69,2.182-4.872,4.872-4.872c2.689,0,4.871,2.182,4.871,4.872C20.871,18.689,18.689,20.871,16,20.871z"></path><title>Link options.</title></g></g></g></g><g   id="j_32"  transform="translate(854,219)" style=""><g  id="v-312" style="opacity: 1;"><rect  id="v-313" rx="10" ry="10" stroke="#c7c7c7" stroke-width="2" pointer-events="visiblePainted" fill="#c7c7c7" width="450" height="300" style="fill: rgb(199, 199, 199); stroke: rgb(199, 199, 199);"></rect><rect  id="v-314" rx="10" ry="10" stroke="#c7c7c7" stroke-width="0" pointer-events="visiblePainted" fill="#dddddd" width="430" height="250" x="10" y="40" style="fill: rgb(221, 221, 221);"></rect><ellipse  id="v-321" fill="#dddddd" cx="20" cy="20" rx="10" ry="10" style="fill: rgb(221, 221, 221);"></ellipse><ellipse  id="v-322" fill="#dddddd" cx="50" cy="20" rx="10" ry="10" style="fill: rgb(221, 221, 221);"></ellipse><ellipse  id="v-323" fill="#dddddd" cx="80" cy="20" rx="10" ry="10" style="fill: rgb(221, 221, 221);"></ellipse><rect  id="v-315" rx="10" ry="10" stroke="#444444" stroke-width="0" pointer-events="visiblePainted" fill="#dddddd" width="340" height="20" x="100" y="10" style="fill: rgb(221, 221, 221);"></rect><text  id="v-316" font-size="34" xml:space="preserve" y="0.8em" font-weight="bold" text-anchor="middle" pointer-events="visible" font-family="Open Sans" fill="#000000" transform="matrix(1,0,0,1,225,100.5999984741211)" style="fill: rgb(0, 0, 0);"><tspan  dy="0">Angular Frontend</tspan></text><text  id="v-317" font-size="17" xml:space="preserve" y="0.8em" text-anchor="middle" font-family="Open Sans" fill="#000000" transform="matrix(1,0,0,1,225,141.39999389648438)" style="fill: rgb(0, 0, 0);"><tspan  dy="0">[Component: tag]</tspan></text><text  id="v-318" font-size="24" xml:space="preserve" y="0.8em" text-anchor="middle" font-family="Open Sans" fill="#000000" transform="matrix(1,0,0,1,225,171.8000030517578)" style="fill: rgb(0, 0, 0);"><tspan  dy="0">The SPA manages the companysites</tspan><tspan dy="1.2em" x="0" >with Bing maps and Graphql.</tspan></text><g  id="v-319" font-weight="normal" text-anchor="middle" color="#000000" opacity="0.75" transform="matrix(1,0,0,1,222.5,239.39999389648438)" style="fill: rgb(0, 0, 0);" display="none"><g ></g><g ></g><g ></g><g ></g></g><image  id="v-320"></image></g></g><g   id="j_34"  transform="translate(854,819)" style=""><g  id="v-335" style="opacity: 1;"><rect  id="v-336" rx="1" ry="1" stroke="#c7c7c7" stroke-width="2" pointer-events="visiblePainted" fill="#dddddd" width="450" height="300" style="fill: rgb(221, 221, 221); stroke: rgb(199, 199, 199);"></rect><text  id="v-337" font-size="34" xml:space="preserve" y="0.8em" font-weight="bold" text-anchor="middle" pointer-events="visible" font-family="Open Sans" fill="#000000" transform="matrix(1,0,0,1,225,71.19999694824219)" style="fill: rgb(0, 0, 0);"><tspan  dy="0">CompanySiteController</tspan></text><text  id="v-338" font-size="17" xml:space="preserve" y="0.8em" text-anchor="middle" font-family="Open Sans" fill="#000000" transform="matrix(1,0,0,1,225,112)" style="fill: rgb(0, 0, 0);"><tspan  dy="0">[Component]</tspan></text><text  id="v-339" font-size="24" xml:space="preserve" y="0.8em" text-anchor="middle" font-family="Open Sans" fill="#000000" transform="matrix(1,0,0,1,225,142.39999389648438)" style="fill: rgb(0, 0, 0);"><tspan  dy="0">Graphql controller for the</tspan><tspan dy="1.2em" x="0" >companysites with its child</tspan><tspan dy="1.2em" x="0" >elements.</tspan></text><g  id="v-340" color="#000000" opacity="0.75" transform="matrix(1,0,0,1,222.5,238.8000030517578)" style="fill: rgb(0, 0, 0);" display="none"><g ></g><g ></g><g ></g><g ></g></g><image  id="v-341"></image></g></g><g   id="j_35"  transform="translate(854,1419)" style=""><g  id="v-348" style="opacity: 1;"><rect  id="v-349" rx="1" ry="1" stroke="#c7c7c7" stroke-width="2" pointer-events="visiblePainted" fill="#dddddd" width="450" height="300" style="fill: rgb(221, 221, 221); stroke: rgb(199, 199, 199);"></rect><text  id="v-350" font-size="34" xml:space="preserve" y="0.8em" font-weight="bold" text-anchor="middle" pointer-events="visible" font-family="Open Sans" fill="#000000" transform="matrix(1,0,0,1,225,85.5999984741211)" style="fill: rgb(0, 0, 0);"><tspan  dy="0">CompanySiteService</tspan></text><text  id="v-351" font-size="17" xml:space="preserve" y="0.8em" text-anchor="middle" font-family="Open Sans" fill="#000000" transform="matrix(1,0,0,1,225,126.4000015258789)" style="fill: rgb(0, 0, 0);"><tspan  dy="0">[Component]</tspan></text><text  id="v-352" font-size="24" xml:space="preserve" y="0.8em" text-anchor="middle" font-family="Open Sans" fill="#000000" transform="matrix(1,0,0,1,225,156.8000030517578)" style="fill: rgb(0, 0, 0);"><tspan  dy="0">Implements the companysite logic</tspan><tspan dy="1.2em" x="0" >for different graphs.</tspan></text><g  id="v-353" color="#000000" opacity="0.75" transform="matrix(1,0,0,1,222.5,224.39999389648438)" style="fill: rgb(0, 0, 0);" display="none"><g ></g><g ></g><g ></g><g ></g></g><image  id="v-354"></image></g></g><g   id="j_36"  transform="translate(854,2019)" style=""><g  id="v-361" style="opacity: 1;"><rect  id="v-362" rx="1" ry="1" stroke="#c7c7c7" stroke-width="2" pointer-events="visiblePainted" fill="#dddddd" width="450" height="300" style="fill: rgb(221, 221, 221); stroke: rgb(199, 199, 199);"></rect><text  id="v-363" font-size="34" xml:space="preserve" y="0.8em" font-weight="bold" text-anchor="middle" pointer-events="visible" font-family="Open Sans" fill="#000000" transform="matrix(1,0,0,1,225,65.19999694824219)" style="fill: rgb(0, 0, 0);"><tspan  dy="0">CompanySite</tspan><tspan dy="1.2em" x="0" >Repositories</tspan></text><text  id="v-364" font-size="17" xml:space="preserve" y="0.8em" text-anchor="middle" font-family="Open Sans" fill="#000000" transform="matrix(1,0,0,1,225,146.8000030517578)" style="fill: rgb(0, 0, 0);"><tspan  dy="0">[Component]</tspan></text><text  id="v-365" font-size="24" xml:space="preserve" y="0.8em" text-anchor="middle" font-family="Open Sans" fill="#000000" transform="matrix(1,0,0,1,225,177.1999969482422)" style="fill: rgb(0, 0, 0);"><tspan  dy="0">CompanySite repository with its</tspan><tspan dy="1.2em" x="0" >child repositories.</tspan></text><g  id="v-366" color="#000000" opacity="0.75" transform="matrix(1,0,0,1,222.5,244.8000030517578)" style="fill: rgb(0, 0, 0);" display="none"><g ></g><g ></g><g ></g><g ></g></g><image  id="v-367"></image></g></g></g><g ></g><g ></g><g ></g></g></svg>